solid OBJECT
  facet normal -0 0.70710678118654746 -0.70710678118654746
    outer loop
      vertex 4 0 0
      vertex 0 1 1
      vertex 4 1 1
    endloop
  endfacet
  facet normal 0 0.70710678118654746 -0.70710678118654746
    outer loop
      vertex 4 0 0
      vertex 0 0 0
      vertex 0 1 1
    endloop
  endfacet
  facet normal 0 -0.70710678118654746 -0.70710678118654746
    outer loop
      vertex 4 -1 1
      vertex 0 0 0
      vertex 4 0 0
    endloop
  endfacet
  facet normal 0 -0.70710678118654746 -0.70710678118654746
    outer loop
      vertex 4 -1 1
      vertex 0 -1 1
      vertex 0 0 0
    endloop
  endfacet
  facet normal -0 0 1
    outer loop
      vertex 4 1 1
      vertex 0 -1 1
      vertex 4 -1 1
    endloop
  endfacet
  facet normal 0 -0 1
    outer loop
      vertex 4 1 1
      vertex 0 1 1
      vertex 0 -1 1
    endloop
  endfacet
  facet normal 1 0 -0
    outer loop
      vertex 4 1 1
      vertex 4 -1 1
      vertex 4 0 0
    endloop
  endfacet
  facet normal -1 0 -0
    outer loop
      vertex 0 1 1
      vertex 0 0 0
      vertex 0 -1 1
    endloop
  endfacet
endsolid OBJECT
